HIERARCHY
ROOT Hips
{
 OFFSET 0.000000 0.000000 0.000000
 CHANNELS 6 Xposition Yposition Zposition Yrotation Xrotation Zrotation
 JOINT Chest
 {
  OFFSET 0.000000 9.585900 0.002600
  CHANNELS 3 Yrotation Xrotation Zrotation
  JOINT Chest2
  {
   OFFSET 0.000000 9.601200 -0.005300
   CHANNELS 3 Yrotation Xrotation Zrotation
   JOINT Chest3
   {
    OFFSET 0.000000 9.561800 0.000000
    CHANNELS 3 Yrotation Xrotation Zrotation
    JOINT Chest4
    {
     OFFSET 0.000000 9.552100 0.000000
     CHANNELS 3 Yrotation Xrotation Zrotation
     JOINT Neck
     {
      OFFSET 0.000000 14.453000 0.000000
      CHANNELS 3 Yrotation Xrotation Zrotation
      JOINT Head
      {
       OFFSET 0.000000 8.936500 -0.011300
       CHANNELS 3 Yrotation Xrotation Zrotation
       End Site
       {
        OFFSET 0.000000 17.073600 -0.006000
       }
      }
     }
     JOINT RightCollar
     {
      OFFSET -2.921100 9.558500 0.000000
      CHANNELS 3 Yrotation Xrotation Zrotation
      JOINT RightShoulder
      {
       OFFSET -13.519700 0.000000 0.000000
       CHANNELS 3 Yrotation Xrotation Zrotation
       JOINT RightElbow
       {
        OFFSET 0.000000 -29.696600 0.000000
        CHANNELS 3 Yrotation Xrotation Zrotation
        JOINT RightWrist
        {
         OFFSET 0.000000 -24.004700 0.000000
         CHANNELS 3 Yrotation Xrotation Zrotation
         End Site
         {
          OFFSET 0.000000 -17.728500 0.000000
         }
        }
       }
      }
     }
     JOINT LeftCollar
     {
      OFFSET 2.921100 9.558500 0.000000
      CHANNELS 3 Yrotation Xrotation Zrotation
      JOINT LeftShoulder
      {
       OFFSET 13.519700 0.000000 0.000000
       CHANNELS 3 Yrotation Xrotation Zrotation
       JOINT LeftElbow
       {
        OFFSET 0.000000 -29.696600 0.000000
        CHANNELS 3 Yrotation Xrotation Zrotation
        JOINT LeftWrist
        {
         OFFSET 0.000000 -24.004700 0.000000
         CHANNELS 3 Yrotation Xrotation Zrotation
         End Site
         {
          OFFSET 0.000000 -17.728500 0.000000
         }
        }
       }
      }
     }
    }
   }
  }
 }
 JOINT RightHip
 {
  OFFSET -7.771700 -0.012900 -0.001300
  CHANNELS 3 Yrotation Xrotation Zrotation
  JOINT RightKnee
  {
   OFFSET 0.000000 -40.869800 0.001200
   CHANNELS 3 Yrotation Xrotation Zrotation
   JOINT RightAnkle
   {
    OFFSET 0.000000 -39.717900 0.002100
    CHANNELS 3 Yrotation Xrotation Zrotation
    JOINT RightToe
    {
     OFFSET 0.000000 -4.965400 11.033500
     CHANNELS 3 Yrotation Xrotation Zrotation
     End Site
     {
      OFFSET 0.000000 -1.423100 5.872300
     }
    }
   }
  }
 }
 JOINT LeftHip
 {
  OFFSET 7.771700 -0.012900 -0.001300
  CHANNELS 3 Yrotation Xrotation Zrotation
  JOINT LeftKnee
  {
   OFFSET 0.000000 -40.869800 0.001200
   CHANNELS 3 Yrotation Xrotation Zrotation
   JOINT LeftAnkle
   {
    OFFSET 0.000000 -39.717900 0.002100
    CHANNELS 3 Yrotation Xrotation Zrotation
    JOINT LeftToe
    {
     OFFSET 0.000000 -4.965400 11.033500
     CHANNELS 3 Yrotation Xrotation Zrotation
     End Site
     {
      OFFSET 0.000000 -1.423100 5.872300
     }
    }
   }
  }
 }
}
MOTION
Frames: 15
Frame Time: 0.008333
0.000000 85.388000 0.000000 0.000000 -5.767877 0.000000 0.000000 11.653817 0.000000 0.000000 -5.885947 0.000000 0.000000 -0.000000 0.000000 0.000000 -0.000000 0.000000 0.000000 12.528835 0.000000 0.000000 0.711642 0.000000 0.000000 -0.000000 0.000000 0.000000 0.000000 -90.000000 0.000000 -2.309062 0.000000 0.000000 2.309062 0.000000 0.000000 -0.000000 0.000000 0.000000 -0.000000 90.000000 0.000000 -2.309062 0.000000 0.000000 2.309062 0.000000 0.000000 8.520406 0.000000 0.000000 1.905762 0.000000 -0.000000 -4.658285 0.000000 0.000000 -0.000000 0.000000 0.000000 8.520406 0.000000 0.000000 1.905762 0.000000 -0.000000 -4.658285 0.000000 0.000000 -0.000000 0.000000
-198.868149 58.009852 28.098931 172.582438 -48.683154 -3.300638 5.432713 22.534025 2.892635 2.821617 12.990995 1.422780 3.597779 16.201485 1.890007 2.823945 12.977549 1.438900 0.359424 17.858358 5.092968 -1.000916 -2.490794 9.279292 2.810057 4.387655 1.658292 5.045518 -14.236227 -11.789493 -87.323171 -62.893635 127.251719 4.867917 20.894696 -18.939931 -8.468128 4.096688 0.304062 13.409759 -11.980717 7.146923 132.245417 -70.654519 -155.183431 -12.306312 -17.429929 25.105788 4.178348 -23.799415 -0.238709 -38.757199 73.292927 -40.232530 5.705425 -12.559616 9.497661 0.055070 -0.256242 -0.000589 -2.546368 -22.454291 11.589716 52.631277 79.677333 51.901609 4.311016 -16.012932 -16.173799 0.030621 0.111185 0.005473
-198.866960 57.999781 28.082713 172.524733 -48.617064 -3.207658 5.448829 22.494559 2.826522 2.824057 12.968689 1.400642 3.598633 16.174925 1.877690 2.820279 12.961582 1.424734 0.386496 17.776931 5.138063 -0.977728 -2.634093 9.359429 2.816214 4.364275 1.636741 5.026146 -14.167014 -11.820923 -87.481399 -62.910937 127.366587 4.851055 20.881969 -19.015751 -8.422585 4.058714 0.341527 13.602481 -11.878452 7.157824 132.644298 -70.540432 -155.435720 -12.150209 -17.467405 25.465549 4.154383 -23.888361 -0.306341 -38.757215 73.358755 -40.280691 5.744400 -12.541576 9.481043 0.040677 -0.309486 -0.006282 -2.477463 -22.525226 11.545961 52.640922 79.696589 51.928705 4.286981 -16.049826 -16.164193 0.059707 0.128844 0.000633
-198.852682 57.995510 28.059923 172.495162 -48.596891 -3.201503 5.481441 22.489829 2.834909 2.826708 12.946816 1.388775 3.597615 16.163473 1.880189 2.822047 12.962927 1.432632 0.384552 17.669616 5.138522 -0.971271 -2.764402 9.439050 2.814720 4.314944 1.574342 4.994422 -14.108614 -11.852807 -87.626758 -62.912916 127.476633 4.839594 20.859865 -19.095283 -8.384659 3.985736 0.346798 13.807298 -11.803195 7.166501 133.274559 -70.422139 -155.907808 -12.025503 -17.557605 25.831051 4.127239 -23.925698 -0.294816 -38.837958 73.406329 -40.374845 5.780003 -12.568903 9.469115 0.017449 -0.314670 -0.009298 -2.450099 -22.545616 11.566859 52.801266 79.745960 52.134547 4.275810 -16.107159 -16.204205 0.090644 0.123655 0.010550
-198.846141 57.990037 28.033805 172.543712 -48.571050 -3.200967 5.451625 22.502002 2.787925 2.820489 12.906842 1.384364 3.595777 16.154375 1.877167 2.820282 12.928968 1.397025 0.393929 17.601993 5.186376 -0.979288 -2.878198 9.513300 2.823035 4.297540 1.560887 4.951905 -14.058395 -11.884559 -87.768849 -62.904732 127.592898 4.830311 20.831969 -19.176656 -8.335159 3.955151 0.396793 14.024921 -11.755494 7.167968 134.079613 -70.301177 -156.552319 -11.927011 -17.689982 26.201970 4.091757 -23.957318 -0.342709 -39.081822 73.456211 -40.602902 5.788936 -12.641219 9.444946 0.049850 -0.308943 -0.005822 -2.456475 -22.570603 11.531656 52.829786 79.764962 52.182396 4.272589 -16.126311 -16.212117 0.103304 0.127845 0.016974
-198.836364 57.982809 28.008538 172.549467 -48.535958 -3.186502 5.442475 22.481307 2.767412 2.821041 12.885310 1.373288 3.596800 16.130417 1.853693 2.818935 12.850592 1.347177 0.413454 17.627753 5.271301 -1.002349 -2.994728 9.579151 2.834226 4.337253 1.586776 4.906658 -14.010812 -11.920274 -87.916105 -62.887077 127.719055 4.820801 20.797728 -19.257299 -8.274834 3.989701 0.474483 14.240347 -11.733042 7.161867 135.006072 -70.177428 -157.310709 -11.849421 -17.853153 26.572056 4.076907 -23.999314 -0.367559 -39.200711 73.490638 -40.724543 5.807381 -12.683433 9.437650 0.048350 -0.302309 -0.004784 -2.439911 -22.605007 11.513616 52.861891 79.781783 52.237822 4.276396 -16.143194 -16.211197 0.104977 0.138495 0.023799
-198.825662 57.976271 27.982691 172.535371 -48.510637 -3.163055 5.445681 22.461980 2.752672 2.822541 12.867303 1.367176 3.598793 16.088552 1.826319 2.821229 12.845518 1.356139 0.418683 17.658190 5.300269 -1.042605 -3.129116 9.637918 2.840330 4.324466 1.557803 4.859306 -13.964874 -11.959383 -88.063292 -62.860864 127.847499 4.811510 20.758102 -19.336804 -8.210750 3.963298 0.508183 14.439939 -11.735235 7.149826 135.997656 -70.051119 -158.121345 -11.789100 -18.032399 26.932687 4.059772 -24.037269 -0.386114 -39.288555 73.534062 -40.827846 5.825343 -12.713400 9.446713 0.047941 -0.307912 -0.019964 -2.409868 -22.628576 11.493608 52.936320 79.803372 52.352085 4.279948 -16.173264 -16.224988 0.116497 0.141668 0.023757
-198.816240 57.967925 27.959107 172.519569 -48.474293 -3.135560 5.447086 22.430698 2.733617 2.824922 12.847309 1.366289 3.595690 16.085666 1.818306 2.823019 12.819828 1.349435 0.385397 17.551635 5.314594 -1.074928 -3.093124 9.680088 2.851471 4.295497 1.521856 4.803580 -13.922936 -11.997355 -88.201495 -62.831168 127.971109 4.801603 20.712646 -19.413831 -8.144351 3.922735 0.536323 14.621694 -11.761178 7.130927 137.008031 -69.924051 -158.942045 -11.746388 -18.215052 27.281562 4.050005 -24.084409 -0.409694 -39.370772 73.574748 -40.922515 5.845678 -12.754297 9.444541 0.012801 -0.297608 -0.019902 -2.387045 -22.663302 11.469180 53.053310 79.816410 52.503293 4.280137 -16.205115 -16.238553 0.127764 0.145943 0.015014
-198.809085 57.956591 27.939458 172.494927 -48.417390 -3.095930 5.453680 22.379247 2.724324 2.821630 12.826591 1.352124 3.593143 16.062274 1.806581 2.825795 12.800855 1.348531 0.356607 17.527175 5.329802 -1.119917 -3.078362 9.714680 2.866473 4.280830 1.490126 4.739583 -13.885307 -12.033944 -88.337905 -62.799807 128.095925 4.790382 20.662739 -19.484723 -8.082466 3.899910 0.561861 14.783368 -11.806739 7.105017 138.015051 -69.801301 -159.753786 -11.723215 -18.394649 27.618265 4.045787 -24.155676 -0.446013 -39.434064 73.619566 -40.999847 5.871811 -12.796318 9.442620 -0.003463 -0.291347 -0.030137 -2.363835 -22.721836 11.442070 53.166267 79.834195 52.648917 4.273618 -16.235552 -16.257136 0.150919 0.147681 0.012338
-198.798944 57.950805 27.917707 172.491670 -48.405702 -3.094714 5.456407 22.367204 2.732912 2.821508 12.808130 1.349069 3.598371 15.998321 1.799322 2.821462 12.808199 1.348987 0.342223 17.574312 5.342064 -1.180502 -3.075310 9.743481 2.872491 4.318703 1.482120 4.691594 -13.885966 -12.094262 -88.482063 -62.767479 128.227057 4.777075 20.614755 -19.549704 -8.055571 3.934815 0.572795 14.952832 -11.906072 7.072449 139.009299 -69.686471 -160.545681 -11.716723 -18.565620 27.936607 4.043982 -24.170841 -0.446822 -39.526482 73.639667 -41.086830 5.873003 -12.824221 9.445275 -0.009225 -0.284498 -0.032476 -2.358128 -22.729400 11.428134 53.248096 79.843555 52.772874 4.281189 -16.257451 -16.279646 0.158941 0.158240 0.029173
-198.790332 57.944233 27.899145 172.481068 -48.390214 -3.088993 5.461045 22.347334 2.740320 2.820808 12.790494 1.348503 3.597391 15.976303 1.798381 2.820797 12.790519 1.348450 0.326941 17.612792 5.340369 -1.240480 -3.034405 9.757664 2.907713 4.287940 1.437844 4.609686 -13.838412 -12.115626 -88.630883 -62.738518 128.356446 4.763132 20.569547 -19.609827 -8.025852 3.955391 0.573909 15.093418 -12.011702 7.037831 139.967342 -69.579608 -161.296423 -11.716806 -18.726458 28.229075 4.038769 -24.193327 -0.449892 -39.582142 73.663439 -41.147115 5.900642 -12.845642 9.441947 -0.016460 -0.282627 -0.031289 -2.348455 -22.743769 11.411967 53.343541 79.847530 52.909648 4.288560 -16.272488 -16.280020 0.170795 0.159959 0.010358
-198.777105 57.937800 27.884596 172.449884 -48.376729 -3.106947 5.495885 22.325847 2.786449 2.819398 12.768538 1.354687 3.595967 15.967972 1.796450 2.819119 12.793472 1.346473 0.298947 17.609342 5.338807 -1.287172 -2.945180 9.748578 2.951559 4.224100 1.402616 4.538147 -13.768856 -12.107048 -88.837862 -62.752254 128.525443 4.749184 20.525486 -19.667787 -7.913113 3.834330 0.602076 15.122998 -12.008856 7.012087 140.870988 -69.483615 -161.993226 -11.715124 -18.879684 28.493897 4.030674 -24.215744 -0.406867 -39.606487 73.677307 -41.177907 5.925469 -12.859233 9.443946 -0.050996 -0.271625 -0.034047 -2.345151 -22.755695 11.430786 53.467368 79.861230 53.113314 4.282349 -16.299306 -16.351950 0.221494 0.156055 0.031383
-198.771646 57.929656 27.873499 172.428311 -48.352540 -3.097842 5.509566 22.296676 2.794414 2.817006 12.742606 1.364692 3.594599 15.987300 1.786919 2.819999 12.773683 1.350289 0.264666 17.612562 5.336618 -1.328259 -2.832126 9.718998 2.990201 4.177463 1.384085 4.457474 -13.756650 -12.157621 -88.963968 -62.720213 128.627034 4.732151 20.485496 -19.722552 -7.849481 3.752877 0.614062 15.175156 -12.047640 6.984211 141.704316 -69.399592 -162.624536 -11.708711 -19.024212 28.735107 4.038605 -24.247558 -0.403902 -39.636301 73.691565 -41.210070 5.929722 -12.874401 9.447130 -0.058974 -0.261302 -0.035810 -2.337013 -22.779278 11.412824 53.539179 79.864072 53.229649 4.307884 -16.316417 -16.391372 0.231058 0.163728 0.035268
-198.771358 57.926173 27.860831 172.444647 -48.367089 -3.094464 5.486724 22.299164 2.785990 2.816379 12.721025 1.372324 3.597744 15.976093 1.789976 2.821422 12.759112 1.355051 0.239005 17.670069 5.318534 -1.386190 -2.716185 9.682327 3.019645 4.163498 1.364186 4.379932 -13.751878 -12.200096 -89.087528 -62.701311 128.720902 4.713568 20.453002 -19.767124 -7.823172 3.725311 0.604516 15.230688 -12.107638 6.951120 142.450309 -69.328270 -163.177098 -11.696264 -19.158268 28.956034 4.036532 -24.233177 -0.419927 -39.720195 73.710098 -41.302651 5.935370 -12.906302 9.461488 -0.063502 -0.252787 -0.038916 -2.346111 -22.762292 11.365600 53.603867 79.862784 53.333382 4.328680 -16.325031 -16.427312 0.238865 0.164992 0.039274
-198.773911 57.920849 27.853118 172.438889 -48.369461 -3.070742 5.474295 22.282033 2.773303 2.815439 12.701371 1.380607 3.596375 15.902737 1.824556 2.814816 12.806959 1.333640 0.192876 17.733500 5.292678 -1.420879 -2.576477 9.623740 3.048720 4.157901 1.349867 4.319204 -13.742058 -12.224981 -89.236707 -62.708350 128.828818 4.696517 20.427913 -19.802753 -7.802602 3.705312 0.585499 15.267196 -12.164989 6.918325 143.096178 -69.273206 -163.639493 -11.676971 -19.283564 29.155754 4.051877 -24.231110 -0.442988 -39.745622 73.716750 -41.331990 5.936735 -12.924692 9.466095 -0.067369 -0.240511 -0.036713 -2.354902 -22.757484 11.285400 53.781813 79.827849 53.543892 4.394529 -16.327705 -16.454866 0.205559 0.181894 0.025919
